<?xml version="1.0" encoding="UTF-8" standalone="no"?>
<svg
   xmlns:dc="http://purl.org/dc/elements/1.1/"
   xmlns:cc="http://creativecommons.org/ns#"
   xmlns:rdf="http://www.w3.org/1999/02/22-rdf-syntax-ns#"
   xmlns:svg="http://www.w3.org/2000/svg"
   xmlns="http://www.w3.org/2000/svg"
   xmlns:sodipodi="http://sodipodi.sourceforge.net/DTD/sodipodi-0.dtd"
   xmlns:inkscape="http://www.inkscape.org/namespaces/inkscape"
   version="1.1"
   viewBox="0 0 514.06812 426.05306"
   id="svg2"
   sodipodi:docname="arts_craft_base_logo.svg"
   inkscape:version="0.92.3 (2405546, 2018-03-11)"
   width="514.06812"
   height="426.05307">
  <sodipodi:namedview
     pagecolor="#ffffff"
     bordercolor="#666666"
     borderopacity="1"
     objecttolerance="10"
     gridtolerance="10"
     guidetolerance="10"
     inkscape:pageopacity="0"
     inkscape:pageshadow="2"
     inkscape:window-width="1920"
     inkscape:window-height="1027"
     id="namedview108"
     showgrid="false"
     inkscape:zoom="0.82657581"
     inkscape:cx="136.05498"
     inkscape:cy="217.13075"
     inkscape:window-x="-8"
     inkscape:window-y="-8"
     inkscape:window-maximized="1"
     inkscape:current-layer="svg2"
     fit-margin-top="0"
     fit-margin-left="0"
     fit-margin-right="0"
     fit-margin-bottom="0" />
  <defs
     id="defs4">
    <linearGradient
       y2="451.32001"
       x2="602.46002"
       gradientTransform="translate(-386.56,-284.88)"
       y1="302.12"
       gradientUnits="userSpaceOnUse"
       x1="444.76999"
       id="linearGradient4008">
      <stop
         offset="0"
         style="stop-color:#ff298f"
         id="stop4416" />
      <stop
         offset=".45002"
         style="stop-color:#d51952"
         id="stop4418" />
      <stop
         offset="1"
         style="stop-color:#b5093b"
         id="stop4420" />
    </linearGradient>
    <linearGradient
       y2="451.32001"
       x2="602.46002"
       gradientTransform="rotate(35.6,890.76746,-72.455704)"
       y1="302.12"
       gradientUnits="userSpaceOnUse"
       x1="444.76999"
       id="linearGradient4013">
      <stop
         offset="0"
         style="stop-color:#139bca"
         id="stop4424" />
      <stop
         offset=".45002"
         style="stop-color:#0e5fb0"
         id="stop4426" />
      <stop
         offset="1"
         style="stop-color:#0a57a9"
         id="stop4428" />
    </linearGradient>
    <linearGradient
       y2="451.32001"
       x2="602.46002"
       gradientTransform="rotate(180,334.9,324.55)"
       y1="302.12"
       gradientUnits="userSpaceOnUse"
       x1="444.76999"
       id="linearGradient4027">
      <stop
         offset="0"
         style="stop-color:#dd8509"
         id="stop4432" />
      <stop
         offset=".45002"
         style="stop-color:#f1bd0a"
         id="stop4434" />
      <stop
         offset="1"
         style="stop-color:#fff44d"
         id="stop4436" />
    </linearGradient>
    <linearGradient
       y2="451.32001"
       x2="602.46002"
       gradientTransform="rotate(180,425.855,324.55)"
       y1="302.12"
       gradientUnits="userSpaceOnUse"
       x1="444.76999"
       id="linearGradient4029">
      <stop
         offset="0"
         style="stop-color:#489f03"
         id="stop4440" />
      <stop
         offset=".45002"
         style="stop-color:#55b505"
         id="stop4442" />
      <stop
         offset="1"
         style="stop-color:#67d308"
         id="stop4444" />
    </linearGradient>
    <filter
       id="filter4402"
       style="color-interpolation-filters:sRGB">
      <feGaussianBlur
         stdDeviation="1.0360341"
         id="feGaussianBlur4404" />
    </filter>
    <filter
       id="filter4454"
       style="color-interpolation-filters:sRGB">
      <feGaussianBlur
         stdDeviation="0.46367808"
         id="feGaussianBlur4456" />
    </filter>
  </defs>
  <g
     id="g3875"
     transform="translate(-0.00434028,58.203075)">
    <path
       style="color:#000000;fill:#008000"
       d="m 415.62,367.83 v -67.719 h -0.0313 c -0.2098,-2.3454 -1.5723,-4.8794 -3.5625,-6.0312 -2.1646,-1.2527 -4.9854,-1.2418 -7.1562,0 -6.2718,2.4209 -12.598,6.2676 -19.438,6.0312 -10.834,0 -19.708,-8.5193 -20.25,-19.219 -0.017,-0.3451 0,-0.68175 0,-1.0312 0,-11.184 9.0663,-20.25 20.25,-20.25 6.9621,0 12.91,3.776 19.438,6.0313 2.1709,1.2419 4.9916,1.2528 7.1562,0 1.9902,-1.1517 3.3527,-3.6859 3.5625,-6.0313 h 0.0313 v -77.816 h -67.75 v 0.0313 c -2.3454,0.2098 -4.8794,5.6382 -6.0312,7.6284 -1.2527,2.1646 -1.2418,4.9854 0,7.1562 2.4209,6.2718 6.2676,12.598 6.0312,19.438 0,10.834 -8.5192,19.708 -19.219,20.25 -0.3451,0.017 -0.6818,0 -1.0313,0 -11.184,0 -20.25,-9.0663 -20.25,-20.25 0,-6.9621 3.776,-12.91 6.0313,-19.438 1.2419,-2.1709 1.2528,-4.9916 0,-7.1562 -1.1517,-1.9902 -3.6859,-3.3527 -6.0313,-3.5625 v -0.0313 h -73.75 v 73.75 h -0.031 c -0.2098,2.3454 -1.5723,4.8796 -3.5625,6.0313 -2.1646,1.2528 -4.9854,1.2419 -7.1563,0 -6.5272,-2.2553 -12.475,-6.0313 -19.438,-6.0313 -11.184,0 -20.25,9.0662 -20.25,20.25 0,0.3495 -0.017,0.68615 0,1.0312 0.5424,10.699 9.4158,19.219 20.25,19.219 6.8396,0.23632 13.166,-3.6103 19.438,-6.0312 2.1709,-1.2418 4.9917,-1.2527 7.1563,0 1.9902,1.1518 3.3527,3.6858 3.5625,6.0312 h 0.031 v 67.719 h 67.75 v -0.0313 c 2.3455,-0.20976 4.8795,-1.5723 6.0313,-3.5625 1.2527,-2.1646 1.2418,-4.9853 0,-7.1562 -2.4209,-6.2718 -6.2676,-12.598 -6.0313,-19.438 0,-10.834 8.5193,-19.708 19.219,-20.25 0.3451,-0.0175 0.6817,0 1.0312,0 11.184,0 20.25,9.0662 20.25,20.25 0,6.9621 -3.7759,12.91 -6.0312,19.438 -1.2419,2.1709 -1.2528,4.9917 0,7.1562 1.1517,1.9902 3.6858,3.3527 6.0312,3.5625 v 0.0313 z"
       id="path4359"
       inkscape:connector-curvature="0" />
    <path
       d="m 232.07,367.85 v -67.719 h -0.031 c -0.2098,-2.3454 -1.5723,-4.8794 -3.5625,-6.0312 -2.1646,-1.2527 -0.9853,-1.2418 -3.1562,0 -6.2718,2.4209 -12.598,6.2676 -19.438,6.0312 -10.834,0 -19.708,-8.5193 -20.25,-19.219 -0.017,-0.3451 0,-0.68175 0,-1.0312 0,-11.184 9.0663,-20.25 20.25,-20.25 6.9621,0 12.91,3.776 19.438,6.0313 2.1709,1.2419 4.9916,1.2528 7.1562,0 1.9902,-1.1517 3.3527,-3.6859 3.5625,-6.0313 h 0.031 v -73.75 h -73.75 v -0.0313 c -2.3454,-0.20976 -4.8796,-1.5723 -6.0313,-3.5625 -1.2528,-2.1646 -1.2419,-4.9853 0,-7.1562 2.2553,-6.5273 6.0313,-12.475 6.0313,-19.438 0,-11.184 -9.0662,-20.25 -20.25,-20.25 -0.3495,0 -0.6862,-0.0175 -1.0313,0 -10.7,0.54236 -19.219,9.4157 -19.219,20.25 -0.2363,6.8396 3.6103,13.166 6.0312,19.438 1.2418,2.1709 1.2527,4.9917 0,7.1562 -1.1518,1.9902 -3.6857,3.3527 -6.0312,3.5625 v 0.0313 h -67.75 v 73.75 h -0.031 c -0.2098,2.3454 -1.5723,4.8796 -3.5625,6.0313 -2.1646,1.2528 -4.9853,1.2419 -7.1562,0 -6.5272,-2.2553 -12.475,-6.0313 -19.438,-6.0313 -11.184,0 -20.25,9.0662 -20.25,20.25 0,0.3495 -0.017,0.68615 0,1.0312 0.5424,10.699 9.4158,19.219 20.25,19.219 6.8396,0.23632 13.166,-3.6103 19.438,-6.0312 2.1709,-1.2418 4.9916,-1.2527 7.1562,0 1.9902,1.1518 3.3527,3.6858 3.5625,6.0312 h 0.031 v 67.719 h 67.75 v -0.0313 c 2.3455,-0.20976 4.8794,-1.5723 6.0312,-3.5625 1.2527,-2.1646 1.2418,-4.9853 0,-7.1562 -2.4209,-6.2718 -6.2675,-12.598 -6.0312,-19.438 0,-10.834 8.5192,-19.708 19.219,-20.25 0.3451,-0.0175 0.6818,0 1.0313,0 11.184,0 20.25,9.0662 20.25,20.25 0,6.9621 -3.776,12.91 -6.0313,19.438 -1.2419,2.1709 -1.2528,4.9917 0,7.1562 1.1517,1.9902 3.6859,3.3527 6.0313,3.5625 v 0.0313 z"
       style="color:#000000;fill:#873e00"
       id="path4374"
       inkscape:connector-curvature="0" />
    <path
       style="color:#000000;fill:#800000;fill-opacity:0.82239003;filter:url(#filter4402)"
       d="m 50.59,6.64 v 67.719 h 0.0313 c 0.2098,2.3454 1.5723,4.8794 3.5625,6.0312 2.1646,1.2527 4.9854,1.2418 7.1562,0 6.2718,-2.4209 12.598,-6.2676 19.438,-6.0312 10.834,0 19.708,8.5193 20.25,19.219 0.017,0.3451 0,0.68175 0,1.0312 0,11.184 -9.0663,20.25 -20.25,20.25 -6.9621,0 -12.91,-3.776 -19.438,-6.0312 -2.1709,-1.2419 -4.9916,-1.2528 -7.1562,0 -1.9902,1.1517 -3.3527,3.6858 -3.5625,6.0312 h -0.03 v 73.75 h 67.75 v -0.0313 c 2.3454,-0.2098 4.8794,-1.5723 6.0312,-3.5625 1.2527,-2.1646 1.2418,-4.9854 0,-7.1562 -2.4209,-6.2718 -6.2676,-12.598 -6.0312,-19.438 0,-10.834 8.5192,-19.708 19.219,-20.25 0.3451,-0.017 0.6818,0 1.0313,0 11.184,0 20.25,9.0663 20.25,20.25 0,6.9621 -3.776,12.91 -6.0313,19.438 -1.2419,2.1709 -1.2528,4.9916 0,7.1562 1.1517,1.9902 3.6859,3.3527 6.0313,3.5625 v 0.0313 h 73.75 v -73.75 h 0.031 c 0.2098,-2.3454 1.5723,-4.8796 3.5625,-6.0312 2.1646,-1.2528 4.9854,-1.2419 7.1563,0 6.5272,2.2553 12.475,6.0312 19.438,6.0312 11.184,0 20.25,-9.0662 20.25,-20.25 0,-0.3495 0.017,-0.68615 0,-1.0312 -0.5424,-10.699 -9.4158,-19.219 -20.25,-19.219 -6.8396,-0.23632 -13.166,3.6103 -19.438,6.0312 -2.1709,1.2418 -4.9917,1.2527 -7.1563,0 -1.9902,-1.1518 -3.3527,-3.6858 -3.5625,-6.0312 h -0.031 V 6.64 h -67.75 v 0.0313 c -2.3455,0.20976 -4.8795,1.5723 -6.0313,3.5625 -1.2527,2.1646 -1.2418,4.9853 0,7.1562 2.4209,6.2718 6.2676,12.598 6.0313,19.438 0,10.834 -8.5193,19.708 -19.219,20.25 -0.3451,0.0175 -0.6817,0 -1.0312,0 -11.184,0 -20.25,-9.0662 -20.25,-20.25 0,-6.9621 3.7759,-12.91 6.0312,-19.438 1.2419,-2.1709 1.2528,-4.9917 0,-7.1562 -1.1517,-1.9902 -3.6858,-3.3527 -6.0312,-3.5625 v -0.03 h -73.75 z"
       id="path4355"
       inkscape:connector-curvature="0" />
    <path
       style="color:#000000;fill:url(#linearGradient4008);stroke:#000000;stroke-width:0.40000001"
       d="m 50.59,0.27 v 67.719 h 0.0313 c 0.2098,2.3454 1.5723,4.8794 3.5625,6.0312 2.1646,1.2527 4.9854,1.2418 7.1562,0 6.2718,-2.4209 12.598,-6.2676 19.438,-6.0312 10.834,0 19.708,8.5193 20.25,19.219 0.017,0.3451 0,0.68175 0,1.0312 0,11.184 -9.0663,20.25 -20.25,20.25 -6.9621,0 -12.91,-3.776 -19.438,-6.0312 -2.1709,-1.2419 -4.9916,-1.2528 -7.1562,0 -1.9902,1.1517 -3.3527,3.6858 -3.5625,6.0312 h -0.03 v 73.75 h 67.75 v -0.0313 c 2.3454,-0.2098 4.8794,-1.5723 6.0312,-3.5625 1.2527,-2.1646 1.2418,-4.9854 0,-7.1562 -2.4209,-6.2718 -6.2676,-12.598 -6.0312,-19.438 0,-10.834 8.5192,-19.708 19.219,-20.25 0.3451,-0.017 0.6818,0 1.0313,0 11.184,0 20.25,9.0663 20.25,20.25 0,6.9621 -3.776,12.91 -6.0313,19.438 -1.2419,2.1709 -1.2528,4.9916 0,7.1562 1.1517,1.9902 3.6859,3.3527 6.0313,3.5625 v 0.0313 h 73.75 v -73.75 h 0.031 c 0.2098,-2.3454 1.5723,-4.8796 3.5625,-6.0312 2.1646,-1.2528 4.9854,-1.2419 7.1563,0 6.5272,2.2553 12.475,6.0312 19.438,6.0312 11.184,0 20.25,-9.0662 20.25,-20.25 0,-0.3495 0.017,-0.68615 0,-1.0312 -0.5424,-10.699 -9.4158,-19.219 -20.25,-19.219 -6.8396,-0.23632 -13.166,3.6103 -19.438,6.0312 -2.1709,1.2418 -4.9917,1.2527 -7.1563,0 -1.9902,-1.1518 -3.3527,-3.6858 -3.5625,-6.0312 h -0.031 V 0.27 h -67.75 v 0.0313 c -2.3455,0.20976 -4.8795,1.5723 -6.0313,3.5625 -1.2527,2.1646 -1.2418,4.9853 0,7.1562 2.4209,6.2718 6.2676,12.598 6.0313,19.438 0,10.834 -8.5193,19.708 -19.219,20.25 -0.3451,0.0175 -0.6817,0 -1.0312,0 -11.184,0 -20.25,-9.0662 -20.25,-20.25 0,-6.9621 3.7759,-12.91 6.0312,-19.438 1.2419,-2.1709 1.2528,-4.9917 0,-7.1562 -1.1517,-1.9902 -3.6858,-3.3527 -6.0312,-3.5625 v -0.03 h -73.75 z"
       id="path4006"
       inkscape:connector-curvature="0" />
    <path
       d="m 232.65,363.95 v -67.719 h -0.031 c -0.2098,-2.3454 -1.5723,-4.8794 -3.5625,-6.0312 -2.1646,-1.2527 -4.9853,-1.2418 -7.1562,0 -6.2718,2.4209 -12.598,6.2676 -19.438,6.0312 -10.834,0 -19.708,-8.5193 -20.25,-19.219 -0.017,-0.3451 0,-0.68175 0,-1.0312 0,-11.184 9.0663,-20.25 20.25,-20.25 6.9621,0 12.91,3.776 19.438,6.0313 2.1709,1.2419 4.9916,1.2528 7.1562,0 1.9902,-1.1517 3.3527,-3.6859 3.5625,-6.0313 h 0.031 v -73.75 H 158.9 v -0.0313 c -2.3454,-0.20976 -4.8796,-1.5723 -6.0313,-3.5625 -1.2528,-2.1646 -1.2419,-4.9853 0,-7.1562 2.2553,-6.5273 6.0313,-12.475 6.0313,-19.438 0,-11.184 -9.0662,-20.25 -20.25,-20.25 -0.3495,0 -0.6862,-0.0175 -1.0313,0 -10.7,0.54236 -19.219,9.4157 -19.219,20.25 -0.2363,6.8396 3.6103,13.166 6.0312,19.438 1.2418,2.1709 1.2527,4.9917 0,7.1562 -1.1518,1.9902 -3.6857,3.3527 -6.0312,3.5625 v 0.0313 h -67.75 v 73.75 h -0.031 c -0.2098,2.3454 -1.5723,4.8796 -3.5625,6.0313 -2.1646,1.2528 -4.9853,1.2419 -7.1562,0 -6.5272,-2.2553 -12.475,-6.0313 -19.438,-6.0313 -11.184,0 -20.25,9.0662 -20.25,20.25 0,0.3495 -0.017,0.68615 0,1.0312 0.5424,10.699 9.4158,19.219 20.25,19.219 6.8396,0.23632 13.166,-3.6103 19.438,-6.0312 2.1709,-1.2418 4.9916,-1.2527 7.1562,0 1.9902,1.1518 3.3527,3.6858 3.5625,6.0312 h 0.031 v 67.719 h 67.75 v -0.0313 c 2.3455,-0.20976 4.8794,-1.5723 6.0312,-3.5625 1.2527,-2.1646 1.2418,-4.9853 0,-7.1562 -2.4209,-6.2718 -6.2675,-12.598 -6.0312,-19.438 0,-10.834 8.5192,-19.708 19.219,-20.25 0.3451,-0.0175 0.6818,0 1.0313,0 11.184,0 20.25,9.0662 20.25,20.25 0,6.9621 -3.776,12.91 -6.0313,19.438 -1.2419,2.1709 -1.2528,4.9917 0,7.1562 1.1517,1.9902 3.6859,3.3527 6.0313,3.5625 v 0.0313 z"
       style="color:#000000;fill:url(#linearGradient4027);stroke:#ff6600;stroke-width:0.40000001"
       id="path4023"
       inkscape:connector-curvature="0" />
    <path
       style="color:#000000;fill:url(#linearGradient4029)"
       d="m 414.56,363.94 v -67.719 h -0.0313 c -0.2098,-2.3454 -1.5723,-4.8794 -3.5625,-6.0312 -2.1646,-1.2527 -4.9854,-1.2418 -7.1562,0 -6.2718,2.4209 -12.598,6.2676 -19.438,6.0312 -10.834,0 -19.708,-8.5193 -20.25,-19.219 -0.017,-0.3451 0,-0.68175 0,-1.0312 0,-11.184 9.0663,-20.25 20.25,-20.25 6.9621,0 12.91,3.776 19.438,6.0313 2.1709,1.2419 4.9916,1.2528 7.1562,0 1.9902,-1.1517 3.3527,-3.6859 3.5625,-6.0313 h 0.0313 v -73.75 h -67.75 v 0.0313 c -2.3454,0.2098 -4.8794,1.5723 -6.0312,3.5625 -1.2527,2.1646 -1.2418,4.9854 0,7.1562 2.4209,6.2718 6.2676,12.598 6.0312,19.438 0,10.834 -8.5192,19.708 -19.219,20.25 -0.3451,0.017 -0.6818,0 -1.0313,0 -11.184,0 -20.25,-9.0663 -20.25,-20.25 0,-6.9621 3.776,-12.91 6.0313,-19.438 1.2419,-2.1709 1.2528,-4.9916 0,-7.1562 -1.1517,-1.9902 -3.6859,-3.3527 -6.0313,-3.5625 v -0.0313 h -73.75 v 73.75 h -0.031 c -0.2098,2.3454 -1.5723,4.8796 -3.5625,6.0313 -2.1646,1.2528 -4.9854,1.2419 -7.1563,0 -6.5272,-2.2553 -12.475,-6.0313 -19.438,-6.0313 -11.184,0 -20.25,9.0662 -20.25,20.25 0,0.3495 -0.017,0.68615 0,1.0312 0.5424,10.699 9.4158,19.219 20.25,19.219 6.8396,0.23632 13.166,-3.6103 19.438,-6.0312 2.1709,-1.2418 4.9917,-1.2527 7.1563,0 1.9902,1.1518 3.3527,3.6858 3.5625,6.0312 h 0.031 v 67.719 h 67.75 v -0.0313 c 2.3455,-0.20976 4.8795,-1.5723 6.0313,-3.5625 1.2527,-2.1646 1.2418,-4.9853 0,-7.1562 -2.4209,-6.2718 -6.2676,-12.598 -6.0313,-19.438 0,-10.834 8.5193,-19.708 19.219,-20.25 0.3451,-0.0175 0.6817,0 1.0312,0 11.184,0 20.25,9.0662 20.25,20.25 0,6.9621 -3.7759,12.91 -6.0312,19.438 -1.2419,2.1709 -1.2528,4.9917 0,7.1562 1.1517,1.9902 3.6858,3.3527 6.0312,3.5625 v 0.0313 h 73.75 z"
       id="path4025"
       inkscape:connector-curvature="0" />
    <path
       style="color:#000000;fill:#800000"
       d="m 122.23,0.38 v 0.0313 c 2.3454,0.20976 4.8796,1.5723 6.0312,3.5625 1.2528,2.1646 1.2419,4.9853 0,7.1562 -2.2553,6.5273 -6.0312,12.475 -6.0312,19.438 0,11.184 9.0662,20.25 20.25,20.25 0.3495,0 0.68615,0.0175 1.0312,0 -10.964,-0.2523 -19.781,-9.2249 -19.781,-20.25 0,-6.9621 3.776,-12.91 6.0312,-19.438 1.2419,-2.1709 1.2528,-4.9917 0,-7.1562 -1.1517,-1.9902 -3.6858,-3.3527 -6.0312,-3.5625 v -0.03 h -1.5 z m 108.25,0 v 67.719 h 0.0313 c 0.2098,2.3454 1.5723,4.8794 3.5625,6.0312 1.3064,0.75609 2.8464,1.0323 4.3438,0.875 -0.99195,-0.0989 -1.9782,-0.37405 -2.8438,-0.875 -1.9902,-1.1518 -3.3527,-3.6858 -3.5625,-6.0312 h -0.03 V 0.38 h -1.5 z M 77.39,68.099 c -6.3536,0.23675 -12.276,3.7616 -18.156,6.0312 -0.86065,0.49232 -1.829,0.77165 -2.8125,0.875 1.4886,0.14842 3.0097,-0.12978 4.3125,-0.875 5.8116,-2.2433 11.667,-5.7225 17.938,-6.0312 -0.42747,-0.0148 -0.85767,-0.0158 -1.2812,0 z m 183.5,0 c 10.733,0.11513 19.493,8.5922 20.031,19.219 0.017,0.3451 0,0.68175 0,1.0312 0,10.961 -8.7178,19.868 -19.594,20.219 0.28331,0.0124 0.55711,0.0313 0.84375,0.0313 11.184,0 20.25,-9.0662 20.25,-20.25 0,-0.3495 0.017,-0.68615 0,-1.0312 -0.5424,-10.699 -9.4158,-19.219 -20.25,-19.219 -0.42747,-0.0148 -0.85767,-0.0158 -1.2812,0 z m -203.72,33.53 c -0.2497,-2.7e-4 -0.50167,0.0377 -0.75,0.0625 0.98355,0.10335 1.9518,0.38265 2.8125,0.875 6.5272,2.2553 12.475,6.0312 19.438,6.0312 0.22252,0 0.43546,-0.0241 0.65625,-0.0313 -6.598,-0.28951 -12.335,-3.8376 -18.594,-6 -1.0854,-0.62095 -2.3154,-0.93614 -3.5625,-0.9375 z m 180.5,0 c -1.2471,-0.001 -2.5114,0.3111 -3.5938,0.9375 -1.9902,1.1517 -3.3527,3.6858 -3.5625,6.0312 h -0.0313 v 73.75 h 1.5 v -73.75 h 0.0313 c 0.2098,-2.3454 1.5723,-4.8796 3.5625,-6.0312 0.8656,-0.50098 1.8518,-0.77609 2.8438,-0.875 -0.2569,-0.027 -0.49172,-0.0622 -0.75,-0.0625 z M 135.45,131.91 c -10.7,0.5424 -19.219,9.4158 -19.219,20.25 -0.2364,6.8396 3.6104,13.166 6.0312,19.438 1.2418,2.1709 1.2527,4.9916 0,7.1562 -1.1518,1.9902 -3.6858,3.3527 -6.0312,3.5625 v 0.0313 h 1.5 v -0.0313 c 2.3454,-0.2098 4.8794,-1.5723 6.0312,-3.5625 1.2527,-2.1646 1.2418,-4.9854 0,-7.1562 -2.4209,-6.2718 -6.2676,-12.598 -6.0312,-19.438 0,-10.792 8.4535,-19.645 19.094,-20.25 -0.11592,-0.002 -0.22736,0 -0.34375,0 -0.3495,0 -0.68615,-0.017 -1.0312,0 z"
       id="path4206"
       inkscape:connector-curvature="0" />
    <path
       style="color:#000000;fill:#ffffff;fill-opacity:0.47876"
       d="m 232.87,181.96 v 73.75 h -0.0313 c -0.2098,2.3454 -1.5723,4.8795 -3.5625,6.0312 -0.7936,0.45931 -1.6568,0.7538 -2.5625,0.875 1.5656,0.21209 3.1915,-0.0815 4.5625,-0.875 1.9902,-1.1517 3.3527,-3.6858 3.5625,-6.0312 h 0.03 v -73.75 h -2 z m 114.25,0 v 0.0313 c -2.3454,0.2098 -4.8794,1.5723 -6.0312,3.5625 -1.2527,2.1646 -1.2418,4.9854 0,7.1562 2.4209,6.2718 6.2676,12.598 6.0312,19.438 0,10.834 -8.5192,19.708 -19.219,20.25 0.32449,0.0154 0.64044,0 0.96875,0 0.3495,0 0.68615,0.017 1.0312,0 10.7,-0.5424 19.219,-9.4158 19.219,-20.25 0.2364,-6.8396 -3.6104,-13.166 -6.0312,-19.438 -1.2418,-2.1709 -1.2527,-4.9916 0,-7.1562 1.1518,-1.9902 3.6858,-3.3527 6.0312,-3.5625 v -0.03 h -2 z m -144.44,73.75 c -11.184,0 -20.25,9.0662 -20.25,20.25 0,0.3495 -0.017,0.68615 0,1.0312 0.5424,10.699 9.4158,19.219 20.25,19.219 0.52157,0.018 1.0467,-0.004 1.5625,-0.0313 -10.632,-0.22885 -19.278,-8.6345 -19.812,-19.188 -0.017,-0.3451 0,-0.68175 0,-1.0312 0,-10.803 8.4694,-19.63 19.125,-20.219 -0.28652,-0.0127 -0.58508,-0.0313 -0.875,-0.0313 z m 184,0 c -0.34949,0 -0.68611,0.0138 -1.0312,0.0313 6.5552,0.32134 12.242,3.8486 18.469,6 1.375,0.78658 3.0292,1.0844 4.5938,0.875 -0.90625,-0.12277 -1.7978,-0.41968 -2.5938,-0.875 -6.5272,-2.2553 -12.475,-6.0312 -19.438,-6.0312 z m -158.97,33.53 c -0.3324,3.6e-4 -0.67058,0.0179 -1,0.0625 0.90592,0.12113 1.7687,0.41558 2.5625,0.875 1.9902,1.1518 3.3527,3.6858 3.5625,6.0312 h 0.0313 v 67.719 h 2 v -67.719 h -0.0313 c -0.2098,-2.3454 -1.5723,-4.8794 -3.5625,-6.0312 -1.0823,-0.62636 -2.3154,-0.93887 -3.5625,-0.9375 z m 180,0 c -1.2471,10e-4 -2.5083,0.3166 -3.5938,0.9375 -5.7935,2.2363 -11.627,5.6727 -17.875,6 0.14754,0.003 0.28921,0.0313 0.4375,0.0313 6.8396,0.23632 13.166,-3.6103 19.438,-6.0312 0.79614,-0.45541 1.6872,-0.7523 2.5938,-0.875 -0.3292,-0.044 -0.6676,-0.0629 -1,-0.0625 z m -85.875,24.25 c -0.0641,0.003 -0.12358,0.0274 -0.1875,0.0313 10.828,0.40361 19.469,9.292 19.469,20.219 0,6.9621 -3.776,12.91 -6.0312,19.438 -1.2419,2.1709 -1.2528,4.9917 0,7.1562 1.1517,1.9902 3.6858,3.3527 6.0312,3.5625 v 0.0313 h 2 v -0.0313 c -2.3454,-0.20976 -4.8796,-1.5723 -6.0312,-3.5625 -1.2528,-2.1646 -1.2419,-4.9853 0,-7.1562 2.2553,-6.5273 6.0312,-12.475 6.0312,-19.438 0,-11.184 -9.0662,-20.25 -20.25,-20.25 -0.3495,0 -0.68615,-0.0175 -1.0312,0 z"
       id="path4294"
       inkscape:connector-curvature="0" />
    <path
       style="color:#000000;fill:#bb6a00"
       d="m 137.69,131.56 c 10.685,0.55791 19.156,9.4262 19.156,20.25 0,6.9621 -3.776,12.91 -6.0312,19.438 -1.2419,2.1709 -1.2528,4.9917 0,7.1562 1.1517,1.9902 3.6858,3.3527 6.0312,3.5625 v 0.0313 h 2.125 v -0.0313 c -2.3454,-0.20976 -4.8796,-1.5723 -6.0312,-3.5625 -1.2528,-2.1646 -1.2419,-4.9853 0,-7.1562 2.2553,-6.5273 6.0312,-12.475 6.0312,-19.438 0,-11.184 -9.0662,-20.25 -20.25,-20.25 -0.3495,0 -0.68615,-0.0175 -1.0312,0 z m 92.906,50.438 v 73.75 h -0.0313 c -0.2098,2.3454 -1.5723,4.8795 -3.5625,6.0312 -0.77409,0.44802 -1.6178,0.71746 -2.5,0.84375 1.5858,0.22951 3.2345,-0.039 4.625,-0.84375 1.9902,-1.1517 3.3527,-3.6858 3.5625,-6.0312 h 0.0313 v -73.75 z m -211.09,73.75 c -0.0736,0.004 -0.1454,0.0267 -0.21875,0.0313 6.5936,0.29282 12.307,3.8387 18.562,6 1.3946,0.79778 3.0716,1.0706 4.6562,0.84375 -0.88282,-0.12777 -1.7549,-0.39963 -2.5312,-0.84375 -6.5272,-2.2553 -12.475,-6.0312 -19.438,-6.0312 -0.34949,0 -0.68611,-0.0175 -1.0312,0 z m 179.88,0 c -10.699,0.54236 -19.219,9.4157 -19.219,20.25 0,0.3495 -0.017,0.68615 0,1.0312 0.5424,10.699 9.4158,19.219 20.25,19.219 0.55268,0.0191 1.11,7e-5 1.6562,-0.0313 -10.618,-0.24465 -19.247,-8.6448 -19.781,-19.188 -0.017,-0.3451 0,-0.68175 0,-1.0312 0,-10.76 8.4043,-19.567 19,-20.219 -0.28676,-0.0127 -0.58483,-0.0313 -0.875,-0.0313 -0.34949,0 -0.68611,-0.0175 -1.0312,0 z m -157.94,33.531 c -1.2471,10e-4 -2.5083,0.3166 -3.5938,0.9375 -5.765,2.2253 -11.568,5.6438 -17.781,6 0.15788,0.004 0.31,0.0313 0.46875,0.0313 6.8396,0.23632 13.166,-3.6103 19.438,-6.0312 0.79591,-0.45528 1.6875,-0.75224 2.5938,-0.875 -0.37116,-0.0563 -0.74923,-0.0629 -1.125,-0.0625 z m 184.12,0 c -0.33266,3.6e-4 -0.67033,0.0178 -1,0.0625 0.86066,0.1306 1.6813,0.43737 2.4375,0.875 1.9902,1.1518 3.3527,3.6858 3.5625,6.0312 h 0.0313 v 67.719 h 2.125 v -67.719 h -0.0313 c -0.2098,-2.3454 -1.5723,-4.8794 -3.5625,-6.0312 -1.0823,-0.62636 -2.3154,-0.93887 -3.5625,-0.9375 z m -90,24.25 c -10.7,0.54236 -19.219,9.4157 -19.219,20.25 -0.2363,6.8396 3.6104,13.166 6.0312,19.438 1.2418,2.1709 1.2527,4.9917 0,7.1562 -1.1518,1.9902 -3.6858,3.3527 -6.0312,3.5625 v 0.0313 h 2.125 v -0.0313 c 2.3455,-0.20976 4.8794,-1.5723 6.0312,-3.5625 1.2527,-2.1646 1.2418,-4.9853 0,-7.1562 -2.4209,-6.2718 -6.2676,-12.598 -6.0312,-19.438 0,-10.824 8.5028,-19.692 19.188,-20.25 -0.34515,-0.0175 -0.71301,0 -1.0625,0 -0.3495,0 -0.68615,-0.0175 -1.0312,0 z"
       id="path4301"
       inkscape:connector-curvature="0" />
    <path
       style="color:#000000;fill:none;stroke:#800000;stroke-width:0.40000001"
       d="m 50.59,0.27 v 67.719 h 0.0313 c 0.2098,2.3454 1.5723,4.8794 3.5625,6.0312 2.1646,1.2527 4.9854,1.2418 7.1562,0 6.2718,-2.4209 12.598,-6.2676 19.438,-6.0312 10.834,0 19.708,8.5193 20.25,19.219 0.017,0.3451 0,0.68175 0,1.0312 0,11.184 -9.0663,20.25 -20.25,20.25 -6.9621,0 -12.91,-3.776 -19.438,-6.0312 -2.1709,-1.2419 -4.9916,-1.2528 -7.1562,0 -1.9902,1.1517 -3.3527,3.6858 -3.5625,6.0312 h -0.03 v 73.75 h 67.75 v -0.0313 c 2.3454,-0.2098 4.8794,-1.5723 6.0312,-3.5625 1.2527,-2.1646 1.2418,-4.9854 0,-7.1562 -2.4209,-6.2718 -6.2676,-12.598 -6.0312,-19.438 0,-10.834 8.5192,-19.708 19.219,-20.25 0.3451,-0.017 0.6818,0 1.0313,0 11.184,0 20.25,9.0663 20.25,20.25 0,6.9621 -3.776,12.91 -6.0313,19.438 -1.2419,2.1709 -1.2528,4.9916 0,7.1562 1.1517,1.9902 3.6859,3.3527 6.0313,3.5625 v 0.0313 h 73.75 v -73.75 h 0.031 c 0.2098,-2.3454 1.5723,-4.8796 3.5625,-6.0312 2.1646,-1.2528 4.9854,-1.2419 7.1563,0 6.5272,2.2553 12.475,6.0312 19.438,6.0312 11.184,0 20.25,-9.0662 20.25,-20.25 0,-0.3495 0.017,-0.68615 0,-1.0312 -0.5424,-10.699 -9.4158,-19.219 -20.25,-19.219 -6.8396,-0.23632 -13.166,3.6103 -19.438,6.0312 -2.1709,1.2418 -4.9917,1.2527 -7.1563,0 -1.9902,-1.1518 -3.3527,-3.6858 -3.5625,-6.0312 h -0.031 V 0.27 h -67.75 v 0.0313 c -2.3455,0.20976 -4.8795,1.5723 -6.0313,3.5625 -1.2527,2.1646 -1.2418,4.9853 0,7.1562 2.4209,6.2718 6.2676,12.598 6.0313,19.438 0,10.834 -8.5193,19.708 -19.219,20.25 -0.3451,0.0175 -0.6817,0 -1.0312,0 -11.184,0 -20.25,-9.0662 -20.25,-20.25 0,-6.9621 3.7759,-12.91 6.0312,-19.438 1.2419,-2.1709 1.2528,-4.9917 0,-7.1562 -1.1517,-1.9902 -3.6858,-3.3527 -6.0312,-3.5625 v -0.03 h -73.75 z"
       id="path4310"
       inkscape:connector-curvature="0" />
    <path
       style="color:#000000;fill:none"
       d="m 232.65,363.95 v -67.719 h -0.031 c -0.2098,-2.3454 -1.5723,-4.8794 -3.5625,-6.0312 -2.1646,-1.2527 -4.9853,-1.2418 -7.1562,0 -6.2718,2.4209 -12.598,6.2676 -19.438,6.0312 -10.834,0 -19.708,-8.5193 -20.25,-19.219 -0.017,-0.3451 0,-0.68175 0,-1.0312 0,-11.184 9.0663,-20.25 20.25,-20.25 6.9621,0 12.91,3.776 19.438,6.0313 2.1709,1.2419 4.9916,1.2528 7.1562,0 1.9902,-1.1517 3.3527,-3.6859 3.5625,-6.0313 h 0.031 v -73.75 H 158.9 v -0.0313 c -2.3454,-0.20976 -4.8796,-1.5723 -6.0313,-3.5625 -1.2528,-2.1646 -1.2419,-4.9853 0,-7.1562 2.2553,-6.5273 6.0313,-12.475 6.0313,-19.438 0,-11.184 -9.0662,-20.25 -20.25,-20.25 -0.3495,0 -0.6862,-0.0175 -1.0313,0 -10.7,0.54236 -19.219,9.4157 -19.219,20.25 -0.2363,6.8396 3.6103,13.166 6.0312,19.438 1.2418,2.1709 1.2527,4.9917 0,7.1562 -1.1518,1.9902 -3.6857,3.3527 -6.0312,3.5625 v 0.0313 h -67.75 v 73.75 h -0.031 c -0.2098,2.3454 -1.5723,4.8796 -3.5625,6.0313 -2.1646,1.2528 -4.9853,1.2419 -7.1562,0 -6.5272,-2.2553 -12.475,-6.0313 -19.438,-6.0313 -11.184,0 -20.25,9.0662 -20.25,20.25 0,0.3495 -0.017,0.68615 0,1.0312 0.5424,10.699 9.4158,19.219 20.25,19.219 6.8396,0.23632 13.166,-3.6103 19.438,-6.0312 2.1709,-1.2418 4.9916,-1.2527 7.1562,0 1.9902,1.1518 3.3527,3.6858 3.5625,6.0312 h 0.031 v 67.719 h 67.75 v -0.0313 c 2.3455,-0.20976 4.8794,-1.5723 6.0312,-3.5625 1.2527,-2.1646 1.2418,-4.9853 0,-7.1562 -2.4209,-6.2718 -6.2675,-12.598 -6.0312,-19.438 0,-10.834 8.5192,-19.708 19.219,-20.25 0.3451,-0.0175 0.6818,0 1.0313,0 11.184,0 20.25,9.0662 20.25,20.25 0,6.9621 -3.776,12.91 -6.0313,19.438 -1.2419,2.1709 -1.2528,4.9917 0,7.1562 1.1517,1.9902 3.6859,3.3527 6.0313,3.5625 v 0.0313 z"
       id="path4314"
       inkscape:connector-curvature="0" />
    <path
       style="color:#000000;fill:none;stroke:#000000;stroke-width:0.40000001"
       d="m 414.43,363.94 v -67.719 h -0.0313 c -0.2098,-2.3454 -1.5723,-4.8794 -3.5625,-6.0312 -2.1646,-1.2527 -4.9854,-1.2418 -7.1562,0 -6.2718,2.4209 -12.598,6.2676 -19.438,6.0312 -10.834,0 -19.708,-8.5193 -20.25,-19.219 -0.017,-0.3451 0,-0.68175 0,-1.0312 0,-11.184 9.0663,-20.25 20.25,-20.25 6.9621,0 12.91,3.776 19.438,6.0313 2.1709,1.2419 4.9916,1.2528 7.1562,0 1.9902,-1.1517 3.3527,-3.6859 3.5625,-6.0313 h 0.0313 v -73.75 h -67.75 v 0.0313 c -2.3454,0.2098 -4.8794,1.5723 -6.0312,3.5625 -1.2527,2.1646 -1.2418,4.9854 0,7.1562 2.4209,6.2718 6.2676,12.598 6.0312,19.438 0,10.834 -8.5192,19.708 -19.219,20.25 -0.3451,0.017 -0.6818,0 -1.0313,0 -11.184,0 -20.25,-9.0663 -20.25,-20.25 0,-6.9621 3.776,-12.91 6.0313,-19.438 1.2419,-2.1709 1.2528,-4.9916 0,-7.1562 -1.1517,-1.9902 -3.6859,-3.3527 -6.0313,-3.5625 v -0.0313 h -73.75 v 73.75 h -0.031 c -0.2098,2.3454 -1.5723,4.8796 -3.5625,6.0313 -2.1646,1.2528 -4.9854,1.2419 -7.1563,0 -6.5272,-2.2553 -12.475,-6.0313 -19.438,-6.0313 -11.184,0 -20.25,9.0662 -20.25,20.25 0,0.3495 -0.017,0.68615 0,1.0312 0.5424,10.699 9.4158,19.219 20.25,19.219 6.8396,0.23632 13.166,-3.6103 19.438,-6.0312 2.1709,-1.2418 4.9917,-1.2527 7.1563,0 1.9902,1.1518 3.3527,3.6858 3.5625,6.0312 h 0.031 v 67.719 h 67.75 v -0.0313 c 2.3455,-0.20976 4.8795,-1.5723 6.0313,-3.5625 1.2527,-2.1646 1.2418,-4.9853 0,-7.1562 -2.4209,-6.2718 -6.2676,-12.598 -6.0313,-19.438 0,-10.834 8.5193,-19.708 19.219,-20.25 0.3451,-0.0175 0.6817,0 1.0312,0 11.184,0 20.25,9.0662 20.25,20.25 0,6.9621 -3.7759,12.91 -6.0312,19.438 -1.2419,2.1709 -1.2528,4.9917 0,7.1562 1.1517,1.9902 3.6858,3.3527 6.0312,3.5625 v 0.0313 h 73.75 z"
       id="path4316"
       inkscape:connector-curvature="0" />
    <path
       style="color:#000000;fill:#008000"
       d="m 412.21,181.74 v 73.75 h -0.0313 c -0.2098,2.3454 -1.5723,4.8795 -3.5625,6.0312 -0.77392,0.44792 -1.6493,0.71742 -2.5312,0.84375 1.586,0.22966 3.2343,-0.0389 4.625,-0.84375 1.9902,-1.1517 3.3527,-3.6858 3.5625,-6.0312 h 0.0313 v -73.75 z m -30.188,73.75 c -11.184,0 -20.25,9.0662 -20.25,20.25 0,0.3495 -0.017,0.68615 0,1.0312 0.5424,10.699 9.4158,19.219 20.25,19.219 0.54231,0.0187 1.0577,-0.001 1.5938,-0.0313 -10.603,-0.26073 -19.216,-8.6553 -19.75,-19.188 -0.017,-0.3451 0,-0.68175 0,-1.0312 0,-10.782 8.4362,-19.599 19.062,-20.219 -0.30374,-0.0143 -0.59869,-0.0313 -0.90625,-0.0313 z m 25.125,33.531 c -0.35515,3.9e-4 -0.71099,0.0429 -1.0625,0.0937 0.88218,0.12628 1.7572,0.39576 2.5312,0.84375 1.9902,1.1518 3.3527,3.6858 3.5625,6.0312 h 0.0313 v 67.719 h 2.0938 v -67.719 h -0.0313 c -0.2098,-2.3454 -1.5723,-4.8794 -3.5625,-6.0312 -1.0823,-0.62636 -2.3154,-0.93887 -3.5625,-0.9375 z"
       id="path4339"
       inkscape:connector-curvature="0" />
    <g
       transform="translate(52.04533,-12.3416)"
       id="g3848">
      <path
         inkscape:connector-curvature="0"
         id="path4353"
         style="color:#000000;fill:#000080;fill-opacity:0.55985"
         d="m 311.12024,-43.787989 -39.42079,55.062369 0.0252,0.01808 c -1.19472,2.029177 -1.56197,4.882716 -0.61424,6.977784 1.03082,2.278636 3.33068,3.911768 5.81872,4.16579 6.50888,1.682526 13.89196,2.237395 19.31596,6.411335 8.80913,6.306716 11.06531,18.399528 5.27746,27.414969 -0.18704,0.290504 -0.39698,0.554248 -0.60029,0.838469 -6.51045,9.093722 -19.1598,11.187591 -28.25327,4.677305 -5.66089,-4.052797 -8.29904,-10.585479 -12.29416,-16.219284 -1.04222,-2.273518 -3.32938,-3.924373 -5.81871,-4.165784 -2.28866,-0.222093 -4.87167,1.045244 -6.40757,2.830159 l -0.0252,-0.01808 -42.93157,59.966187 59.96617,42.93156 -0.0183,0.0255 c 1.78495,1.53587 3.05234,4.11897 2.83024,6.40763 -0.2414,2.48932 -1.89225,4.77649 -4.16581,5.81869 -5.63348,3.99448 -12.16604,6.63247 -16.21937,12.29409 -6.51046,9.09372 -4.41625,21.74294 4.67731,28.25328 0.28437,0.20322 0.54777,0.41367 0.83855,0.60035 9.01589,5.78772 21.10808,3.5319 27.41497,-5.27748 4.17363,-5.42372 4.72869,-12.80691 6.41132,-19.31595 0.25404,-2.48803 1.88723,-4.78798 4.16583,-5.81869 2.09507,-0.94775 7.93284,-4.749 9.96204,-3.55413 l 0.0183,-0.0255 55.08758,39.43883 39.94702,-55.79741 0.0252,0.0182 c 1.5359,-1.78492 4.11897,-3.05233 6.40757,-2.83016 2.48932,0.24141 4.77649,1.89225 5.81871,4.16578 3.99442,5.63343 6.63253,12.16596 12.29416,16.21928 9.09371,6.51047 21.74293,4.41626 28.25328,-4.6773 0.20321,-0.28436 0.41339,-0.5479 0.60028,-0.83846 5.7871,-9.01512 3.53183,-21.10814 -5.27747,-27.41498 -5.42372,-4.17364 -12.80692,-4.72869 -19.31594,-6.41133 -2.48805,-0.25402 -4.78791,-1.88715 -5.81872,-4.16579 -0.94774,-2.09506 -0.58049,-4.9486 0.61423,-6.97778 l -0.0252,-0.0181 39.42078,-55.062372 -55.08757,-39.438833 -0.0183,0.02543 c -2.02923,-1.194811 -4.88271,-1.561974 -6.97779,-0.614229 -2.27863,1.030811 -3.91176,3.330671 -4.16581,5.818689 -1.68253,6.508866 -2.23748,13.8919 -6.41134,19.315953 -6.30671,8.809135 -18.39944,11.065367 -27.41497,5.277467 -0.29078,-0.186665 -0.55435,-0.396923 -0.83855,-0.600341 -9.09373,-6.510467 -11.18765,-19.159725 -4.6773,-28.253279 4.0528,-5.660887 10.58547,-8.299039 16.21936,-12.294094 2.27351,-1.042229 3.92444,-3.3294702 4.16582,-5.8186892 0.22209,-2.288667 -1.04532,-4.87173097 -2.83025,-6.40763397 l 0.0183,-0.02543 z" />
      <path
         inkscape:connector-curvature="0"
         id="path3971"
         d="m 313.76351,-45.74505 -39.42078,55.0623717 0.0252,0.018082 c -1.19472,2.0291773 -1.56197,4.8827163 -0.61422,6.9777873 1.0308,2.278633 3.33066,3.911765 5.81871,4.165787 6.50886,1.68252 13.89195,2.237392 19.31594,6.411329 8.80914,6.306723 11.06532,18.399534 5.27748,27.414975 -0.18705,0.290504 -0.39698,0.554251 -0.60029,0.838472 -6.51046,9.093719 -19.1598,11.187588 -28.25328,4.677299 -5.66088,-4.052791 -8.29903,-10.585476 -12.29415,-16.219281 -1.04222,-2.273515 -3.32939,-3.924373 -5.81871,-4.165787 -2.28867,-0.222093 -4.87167,1.045249 -6.40757,2.830165 l -0.0252,-0.01808 -42.93157,59.96618 59.96619,42.93157 -0.0183,0.0255 c 1.78494,1.53586 3.05234,4.11896 2.83024,6.40762 -0.24141,2.48932 -1.89226,4.77649 -4.16582,5.8187 -5.63348,3.99448 -12.16603,6.63247 -16.21936,12.29408 -6.51046,9.09373 -4.41625,21.74294 4.6773,28.25329 0.28437,0.20322 0.54777,0.41367 0.83855,0.60034 9.0159,5.78772 21.10808,3.53191 27.41498,-5.27747 4.17362,-5.42372 4.72869,-12.80692 6.41133,-19.31594 0.25402,-2.48805 1.88722,-4.78799 4.16582,-5.8187 2.09507,-0.94774 4.94852,-0.58055 6.97778,0.61423 l 0.0183,-0.0255 55.08757,39.43883 42.93158,-59.96618 0.0252,0.0182 c 1.5359,-1.78491 4.11896,-3.05233 6.40757,-2.83015 2.48932,0.24141 4.77649,1.89226 5.8187,4.16578 3.99442,5.63341 6.63255,12.16596 12.29416,16.21928 9.09372,6.51046 21.74294,4.41626 28.25328,-4.6773 0.20322,-0.28437 0.4134,-0.5479 0.60028,-0.83847 5.78711,-9.01511 3.53183,-21.10814 -5.27746,-27.41497 -5.42371,-4.17364 -12.80692,-4.7287 -19.31596,-6.41134 -2.48804,-0.25402 -4.78789,-1.88715 -5.81871,-4.16578 -0.94774,-2.09508 -0.58048,-4.94861 0.61424,-6.97779 l -0.0252,-0.0181 39.42078,-55.062368 -55.08757,-39.438826 -0.0183,0.02542 c -2.02923,-1.19481 -4.88272,-1.56197 -6.97779,-0.614228 -2.27863,1.030813 -3.91176,3.33067 -4.16582,5.818688 -1.68252,6.508866 -2.23747,13.8919 -6.41133,19.315954 -6.30672,8.809134 -18.39945,11.065366 -27.41497,5.277471 -0.29079,-0.186668 -0.55435,-0.396927 -0.83855,-0.600346 -9.09365,-6.510533 -11.18759,-19.159801 -4.67723,-28.25335 4.0528,-5.660888 10.58547,-8.299039 16.21936,-12.2940941 2.27352,-1.0422227 3.92443,-3.3294737 4.16581,-5.8186927 0.2221,-2.288663 -1.04532,-4.871732 -2.83023,-6.407625 l 0.0178,-0.02426 -59.96619,-42.9315722 z"
         style="color:#000000;fill:url(#linearGradient4013);stroke:#000000;stroke-width:0.40000001" />
      <path
         inkscape:connector-curvature="0"
         id="path4330"
         style="color:#000000;fill:#9ec2e2"
         d="m 313.80186,-45.729896 -39.42079,55.062368 0.0255,0.018189 c -1.19472,2.029176 -1.56197,4.882716 -0.61424,6.977783 0.58843,1.30068 1.61222,2.394544 2.8265,3.138135 -0.67625,-0.630083 -1.22454,-1.419854 -1.60684,-2.264946 -0.94774,-2.095071 -0.58049,-4.948611 0.61423,-6.977788 l -0.0244,-0.01745 39.42079,-55.062368 -1.21966,-0.873187 z" />
      <path
         inkscape:connector-curvature="0"
         id="path4328"
         style="color:#000000;fill:#007bff"
         d="m 406.69862,20.777654 -0.0183,0.02543 c -2.02924,-1.194817 -4.88272,-1.561974 -6.97779,-0.614231 -2.27864,1.030813 -3.91177,3.330673 -4.16582,5.818688 -1.68252,6.508868 -2.2374,13.891955 -6.41133,19.315954 -6.30673,8.80913 -18.39945,11.065368 -27.41498,5.277468 0.12616,0.09519 0.25194,0.180428 0.38113,0.272875 0.28421,0.20342 0.54774,0.413654 0.83848,0.600286 9.01589,5.787721 21.10807,3.531904 27.41497,-5.277469 4.17362,-5.423732 4.72862,-12.806978 6.41133,-19.315953 0.25403,-2.488042 1.88723,-4.787974 4.16582,-5.818688 2.09508,-0.947743 4.94861,-0.580495 6.97779,0.61423 l 0.0178,-0.02426 -1.21965,-0.873182 z" />
      <path
         inkscape:connector-curvature="0"
         id="path4326"
         style="color:#000000;fill:#9ec2e2;filter:url(#filter4454)"
         d="m 280.63244,47.998129 c -0.36339,-0.0126 -0.70194,0.0216 -1.0625,0.0313 10.635,0.22528 19.277,8.6321 19.812,19.188 0.017,0.3451 0,0.68175 0,1.0312 0,10.803 -8.4382,19.661 -19.094,20.25 0.11611,0.002 0.22708,0 0.34375,0 11.184,0 20.25,-9.0662 20.25,-20.25 0,-0.3495 0.017,-0.68615 0,-1.0312 -0.5424,-10.699 -9.4158,-19.219 -20.25,-19.219 z"
         transform="rotate(35.6,321.8749,68.280838)" />
      <path
         inkscape:connector-curvature="0"
         id="path4324"
         style="color:#000000;fill:#007bff"
         d="m 446.91235,132.85396 c -5.42372,-4.17364 -12.80693,-4.72869 -19.31596,-6.41133 -1.05756,-0.10797 -2.06026,-0.45951 -2.96685,-1.0095 1.14409,1.05707 2.63148,1.72393 4.1865,1.88268 6.10206,1.57735 12.97713,2.20278 18.28141,5.70905 -0.0672,-0.0494 -0.11703,-0.12229 -0.18505,-0.17098 z" />
      <path
         inkscape:connector-curvature="0"
         id="path4322"
         style="color:#000000;fill:#ffffff;fill-opacity:0.59073002"
         d="m 260.69064,40.806412 c -1.01344,-0.726778 -2.20493,-1.234395 -3.44966,-1.35516 -2.28867,-0.222093 -4.87168,1.045244 -6.40758,2.830158 l -0.0255,-0.01819 -42.93156,59.96619 1.21965,0.87319 42.93156,-59.966187 0.0255,0.01819 c 1.5359,-1.784915 4.11896,-3.052335 6.40757,-2.830159 0.9335,0.09053 1.84754,0.389378 2.66911,0.834771 -0.14353,-0.120225 -0.2871,-0.243675 -0.43915,-0.3529 z" />
      <path
         inkscape:connector-curvature="0"
         id="path4320"
         style="color:#000000;fill:#007bff"
         d="m 409.89463,147.62598 c -0.15211,-0.10915 -0.31574,-0.20471 -0.47559,-0.30199 0.68598,0.63595 1.23419,1.38696 1.62503,2.23953 3.99441,5.63342 6.63253,12.16595 12.29416,16.21928 0.28417,0.20346 0.57308,0.43183 0.86392,0.61851 -5.41593,-4.0684 -8.02879,-10.45104 -11.93802,-15.96432 -0.52107,-1.13674 -1.35589,-2.08361 -2.36912,-2.81069 z" />
      <path
         inkscape:connector-curvature="0"
         id="path4287"
         style="color:#000000;fill:#004000"
         d="m 267.83912,145.16162 -0.0183,0.0255 c 1.78494,1.53587 3.05234,4.11896 2.83016,6.40757 -0.24141,2.48932 -1.89226,4.7765 -4.16582,5.81868 -5.63348,3.9945 -12.16596,6.63255 -16.21928,12.29415 -6.51046,9.09373 -4.41626,21.74295 4.67731,28.25329 0.12935,0.0922 0.25564,0.1809 0.38118,0.27279 -8.38445,-6.66971 -10.14588,-18.84372 -3.83899,-27.6531 4.05281,-5.66089 10.58548,-8.29904 16.21929,-12.29416 2.27351,-1.04222 3.92443,-3.32948 4.16581,-5.81868 0.22209,-2.28867 -1.04524,-4.87168 -2.83015,-6.40758 l 0.0178,-0.0242 -1.21966,-0.8732 z" />
      <path
         inkscape:connector-curvature="0"
         id="path4312"
         style="color:#000000;fill:none;stroke:#000080;stroke-width:0.40000001"
         d="m 313.76351,-45.74505 -39.42078,55.0623717 0.0252,0.018082 c -1.19472,2.0291773 -1.56197,4.8827163 -0.61422,6.9777873 1.0308,2.278633 3.33066,3.911765 5.81871,4.165787 6.50886,1.68252 13.89195,2.237392 19.31594,6.411329 8.80914,6.306723 11.06532,18.399534 5.27748,27.414975 -0.18705,0.290504 -0.39698,0.554251 -0.60029,0.838472 -6.51046,9.093719 -19.1598,11.187588 -28.25328,4.677299 -5.66088,-4.052791 -8.29903,-10.585476 -12.29415,-16.219281 -1.04222,-2.273515 -3.32939,-3.924373 -5.81871,-4.165787 -2.28867,-0.222093 -4.87167,1.045249 -6.40757,2.830165 l -0.0252,-0.01808 -42.93157,59.96618 59.96619,42.93157 -0.0183,0.0255 c 1.78494,1.53586 3.05234,4.11896 2.83024,6.40762 -0.24141,2.48932 -1.89226,4.77649 -4.16582,5.8187 -5.63348,3.99448 -12.16603,6.63247 -16.21936,12.29408 -6.51046,9.09373 -4.41625,21.74294 4.6773,28.25329 0.28437,0.20322 0.54777,0.41367 0.83855,0.60034 9.0159,5.78772 21.10808,3.53191 27.41498,-5.27747 4.17362,-5.42372 4.72869,-12.80692 6.41133,-19.31594 0.25402,-2.48805 1.88722,-4.78799 4.16582,-5.8187 2.09507,-0.94774 4.94852,-0.58055 6.97778,0.61423 l 0.0183,-0.0255 55.08757,39.43883 42.93158,-59.96618 0.0252,0.0182 c 1.5359,-1.78491 4.11896,-3.05233 6.40757,-2.83015 2.48932,0.24141 4.77649,1.89226 5.8187,4.16578 3.99442,5.63341 6.63255,12.16596 12.29416,16.21928 9.09372,6.51046 21.74294,4.41626 28.25328,-4.6773 0.20322,-0.28437 0.4134,-0.5479 0.60028,-0.83847 5.78711,-9.01511 3.53183,-21.10814 -5.27746,-27.41497 -5.42371,-4.17364 -12.80692,-4.7287 -19.31596,-6.41134 -2.48804,-0.25402 -4.78789,-1.88715 -5.81871,-4.16578 -0.94774,-2.09508 -0.58048,-4.94861 0.61424,-6.97779 l -0.0252,-0.0181 39.42078,-55.062368 -55.08757,-39.438826 -0.0183,0.02542 c -2.02923,-1.19481 -4.88272,-1.56197 -6.97779,-0.614228 -2.27863,1.030813 -3.91176,3.33067 -4.16582,5.818688 -1.68252,6.508866 -2.23747,13.8919 -6.41133,19.315954 -6.30672,8.809134 -18.39945,11.065366 -27.41497,5.277471 -0.29079,-0.186668 -0.55435,-0.396927 -0.83855,-0.600346 -9.09365,-6.510533 -11.18759,-19.159801 -4.67723,-28.25335 4.0528,-5.660888 10.58547,-8.299039 16.21936,-12.2940941 2.27352,-1.0422227 3.92443,-3.3294737 4.16581,-5.8186927 0.2221,-2.288663 -1.04532,-4.871732 -2.83023,-6.407625 l 0.0178,-0.02426 -59.96619,-42.9315722 z" />
      <path
         inkscape:connector-curvature="0"
         id="path4346"
         d="m 459.32399,58.158549 -39.42078,55.062371 0.0255,0.0182 c -1.19472,2.02918 -1.56197,4.88272 -0.61422,6.97779 0.71983,1.59124 2.07206,2.87036 3.66154,3.58223 -0.49284,-0.53842 -0.92019,-1.16812 -1.22225,-1.83586 -0.94774,-2.09507 -0.58049,-4.94861 0.61423,-6.97779 l -0.0244,-0.0174 39.42079,-55.062368 z m -12.4356,74.381871 c -0.52084,-0.40081 -1.05736,-0.73879 -1.61177,-1.07705 8.10499,6.45711 10.04843,18.02473 4.45063,26.74554 -0.18704,0.2905 -0.39698,0.55424 -0.60029,0.83846 -6.20834,8.67172 -17.998,11.01211 -26.96517,5.56137 0.36842,0.30705 0.75407,0.57835 1.15061,0.86226 9.09372,6.51047 21.74293,4.41625 28.25329,-4.6773 0.20321,-0.28436 0.4134,-0.5479 0.60028,-0.83847 5.78769,-9.01592 3.53182,-21.10814 -5.27747,-27.41498 z m -40.67783,12.15409 c -1.01344,-0.72679 -2.20494,-1.23441 -3.44967,-1.35517 -2.28867,-0.2221 -4.87168,1.04524 -6.40757,2.83017 l -0.0255,-0.0183 -42.93157,59.96618 2.4393,1.74638 42.93156,-59.96617 0.0255,0.0183 c 1.5359,-1.78491 4.11897,-3.05233 6.40757,-2.83015 0.73977,0.0717 1.46235,0.30897 2.13907,0.60901 -0.34279,-0.37196 -0.71769,-0.7053 -1.12869,-1.00022 z"
         style="color:#000000;fill:#000080;fill-opacity:0.43629001" />
    </g>
  </g>
  <metadata
     id="metadata51">
    <rdf:RDF>
      <cc:Work>
        <dc:format>image/svg+xml</dc:format>
        <dc:type
           rdf:resource="http://purl.org/dc/dcmitype/StillImage" />
        <cc:license
           rdf:resource="http://creativecommons.org/publicdomain/zero/1.0/" />
        <dc:publisher>
          <cc:Agent
             rdf:about="http://openclipart.org/">
            <dc:title>Openclipart</dc:title>
          </cc:Agent>
        </dc:publisher>
        <dc:title></dc:title>
      </cc:Work>
      <cc:License
         rdf:about="http://creativecommons.org/publicdomain/zero/1.0/">
        <cc:permits
           rdf:resource="http://creativecommons.org/ns#Reproduction" />
        <cc:permits
           rdf:resource="http://creativecommons.org/ns#Distribution" />
        <cc:permits
           rdf:resource="http://creativecommons.org/ns#DerivativeWorks" />
      </cc:License>
    </rdf:RDF>
  </metadata>
</svg>
